
<svg width="30" height="30" viewBox="0 0 30 30" fill="none" xmlns="http://www.w3.org/2000/svg">
<g filter="url(#filter0_i)">
<path fill-rule="evenodd" clip-rule="evenodd" d="M29.8947 11.3211C29.6603 10.6474 29.0892 10.1495 28.3862 10.047L20.3164 8.80207L16.7135 1.06914C16.3767 0.439371 15.7323 0 15 0C14.2677 0 13.6233 0.439371 13.2865 1.06914L9.68361 8.80207L1.56989 10.047C0.910833 10.1495 0.339651 10.6474 0.105319 11.3211C-0.129012 11.9802 0.032091 12.7271 0.54469 13.2251L6.43226 19.2445L5.02628 27.8122C4.92376 28.5152 5.23132 29.2182 5.78785 29.6576C6.1247 29.8919 6.49085 29.9944 6.90093 29.9944C7.19384 29.9944 7.5014 29.9212 7.80896 29.7601L15 25.7764L22.191 29.7601C22.4986 29.9212 22.8062 29.9944 23.0991 29.9944C23.5092 29.9944 23.8753 29.8919 24.2121 29.6576C24.7687 29.2182 25.0762 28.5152 24.9737 27.8122L23.5677 19.2445L29.4553 13.2251C29.9679 12.7271 30.129 11.9802 29.8947 11.3211Z" fill="#FFCD69"/>
</g>
<path fill-rule="evenodd" clip-rule="evenodd" d="M30.8829 10.8791C30.6223 10.1892 29.9873 9.6794 29.2056 9.57444L20.2329 8.29967L16.5 0C16.1255 -0.644865 15.1358 -0.713393 14.3216 -0.713393C14.6961 -1.35826 13.5073 -0.713393 14.3216 -0.713393V25.3979L14.3321 18.9924C14.4494 18.2243 14.3216 8.68318 14.3216 10.0383C13.7516 9.52836 14.061 10.7132 14.3216 10.0383L14.3321 18.9924L14.3216 25.3979C14.2076 26.1177 14.3216 4.53961 14.3216 5.56358C14.3216 6.58755 14.3805 15.5276 14.3815 16.015C14.3808 16.8451 14.3216 16.527 14.3216 19.9469V25.3979L22.3172 29.7601C22.6592 29.925 23.0013 30 23.3269 30C23.7829 30 24.19 29.895 24.5645 29.6551C25.1833 29.2052 25.5253 28.4853 25.4113 27.7655L23.848 18.9924L30.3944 12.8287C30.9643 12.3188 31.1434 11.554 30.8829 10.8791Z" fill="#E0E0E0"/>
<defs>
<filter id="filter0_i" x="0" y="-1" width="30" height="30.9944" filterUnits="userSpaceOnUse" color-interpolation-filters="sRGB">
<feFlood flood-opacity="0" result="BackgroundImageFix"/>
<feBlend mode="normal" in="SourceGraphic" in2="BackgroundImageFix" result="shape"/>
<feColorMatrix in="SourceAlpha" type="matrix" values="0 0 0 0 0 0 0 0 0 0 0 0 0 0 0 0 0 0 127 0" result="hardAlpha"/>
<feOffset dy="-1"/>
<feGaussianBlur stdDeviation="2"/>
<feComposite in2="hardAlpha" operator="arithmetic" k2="-1" k3="1"/>
<feColorMatrix type="matrix" values="0 0 0 0 0 0 0 0 0 0 0 0 0 0 0 0 0 0 0.1 0"/>
<feBlend mode="normal" in2="shape" result="effect1_innerShadow"/>
</filter>
</defs>
</svg>
