
<svg width="17" height="31" viewBox="0 0 17 31" fill="none" xmlns="http://www.w3.org/2000/svg">
<path fill-rule="evenodd" clip-rule="evenodd" d="M0.117083 11.8791C0.377711 11.1892 1.01271 10.6794 1.79437 10.5744L10.7671 9.29967L14.5 1C14.8745 0.355135 15.8642 0.286607 16.6784 0.286607C16.3039 -0.358258 17.4927 0.286607 16.6784 0.286607V26.3979L16.6679 19.9924C16.5506 19.2243 16.6784 9.68318 16.6784 11.0383C17.2484 10.5284 16.939 11.7132 16.6784 11.0383L16.6679 19.9924L16.6784 26.3979C16.7924 27.1177 16.6784 5.53961 16.6784 6.56358C16.6784 7.58755 16.6195 16.5276 16.6185 17.015C16.6192 17.8451 16.6784 17.527 16.6784 20.9469V26.3979L8.68278 30.7601C8.34076 30.925 7.99875 31 7.67307 31C7.21708 31 6.81002 30.895 6.43553 30.6551C5.81665 30.2052 5.47475 29.4853 5.58871 28.7655L7.15204 19.9924L0.605648 13.8287C0.0356908 13.3188 -0.143434 12.554 0.117083 11.8791Z" fill="#E0E0E0"/>
</svg>
