
<svg width="17" height="31" viewBox="0 0 17 31" fill="none" xmlns="http://www.w3.org/2000/svg">
<path fill-rule="evenodd" clip-rule="evenodd" d="M16.8829 11.8791C16.6223 11.1892 15.9873 10.6794 15.2056 10.5744L6.23286 9.29967L2.5 1C2.12551 0.355135 1.13583 0.286607 0.32159 0.286607C0.696076 -0.358258 -0.49265 0.286607 0.32159 0.286607V26.3979L0.332147 19.9924C0.449402 19.2243 0.32159 9.68318 0.321594 11.0383C-0.248362 10.5284 0.0610429 11.7132 0.321594 11.0383L0.332147 19.9924L0.32159 26.3979C0.207599 27.1177 0.32159 5.53961 0.32159 6.56358C0.32159 7.58755 0.380523 16.5276 0.381509 17.015C0.380848 17.8451 0.32159 17.527 0.32159 20.9469V26.3979L8.31722 30.7601C8.65924 30.925 9.00125 31 9.32693 31C9.78292 31 10.19 30.895 10.5645 30.6551C11.1833 30.2052 11.5253 29.4853 11.4113 28.7655L9.84796 19.9924L16.3944 13.8287C16.9643 13.3188 17.1434 12.554 16.8829 11.8791Z" fill="#E0E0E0"/>
</svg>
